<?xml version="1.0" encoding="iso-8859-1"?>
<!-- Generator: Adobe Illustrator 19.0.0, SVG Export Plug-In . SVG Version: 6.00 Build 0)  -->
<svg width="100%" height="100%" stroke="currentColor" fill="currentColor" version="1.1" id="Layer_1" xmlns="http://www.w3.org/2000/svg" xmlns:xlink="http://www.w3.org/1999/xlink" x="0px" y="0px"
	 viewBox="0 0 512 512" style="enable-background:new 0 0 512 512;" xml:space="preserve">
<g>
	<g>
		<rect x="177.633" y="167.242" width="156.735" height="20.898"/>
	</g>
</g>
<g>
	<g>
		<path d="M174.482,263.734c-1.255-2.995-3.832-5.235-6.974-6.061l-104.49-27.5c-3.352-0.872-6.939-0.036-9.551,2.25
			c-5.526,4.852-14.408,17.015-12.653,31.847c1.806,15.235,13.776,28.776,35.577,40.25c12.005,6.321,23.275,8.918,33.643,8.918
			c31.413,0,54.439-23.898,63.893-40.485C175.533,270.132,175.742,266.724,174.482,263.734z M86.125,286.03
			c-14.827-7.806-23.541-16.357-24.541-24.081c-0.5-3.862,0.964-7.357,2.536-9.872l83.153,21.882
			C136.299,285.999,115.115,301.285,86.125,286.03z"/>
	</g>
</g>
<g>
	<g>
		<path d="M454.987,232.423c-2.612-2.286-6.194-3.122-9.551-2.25l-104.49,27.5c-3.143,0.827-5.719,3.066-6.975,6.061
			c-1.26,2.99-1.051,6.398,0.556,9.219c9.454,16.587,32.475,40.485,63.893,40.485c10.362,0,21.638-2.597,33.643-8.918
			c21.801-11.475,33.77-25.015,35.577-40.25C469.395,249.438,460.513,237.275,454.987,232.423z M446.885,261.816
			c-0.918,7.765-9.638,16.362-24.556,24.214c-29.194,15.352-50.26,0.133-61.224-12.051l83.24-21.908
			C445.89,254.55,447.339,257.994,446.885,261.816z"/>
	</g>
</g>
<g>
	<g>
		<path d="M486.19,195.586l13.708-35.015c1.453-3.648,0.597-7.796-1.985-10.755c-2.582-2.954-6.667-4.235-10.483-3.265
			l-48.819,12.194c-25.162-50.852-96.783-85.648-178.579-85.648s-153.408,34.796-178.571,85.648L32.676,146.55
			c-3.811-0.949-7.829,0.316-10.411,3.265c-2.581,2.959-3.288,7.112-1.833,10.755l12.907,30.74C13.297,198.724,0,217.882,0,240.224
			v62.75v104.403c0,17.331,12.849,31.527,30.13,31.527h62.704c17.281,0,32.554-14.154,32.554-31.44v-10.356h250.776v10.356
			c0,17.285,12.814,31.44,30.054,31.44h73.306c17.24,0,32.477-14.195,32.477-31.527V302.974v-62.75
			C512,221.749,501.603,204.918,486.19,195.586z M104.49,407.464c0,5.857-5.798,10.542-11.656,10.542H30.13
			c-5.76,0-9.232-4.818-9.232-10.629v-45.385c15.673,21.341,42.411,35.116,71.926,35.116h11.666V407.464z M491.102,407.377
			c0,5.811-5.865,10.629-11.579,10.629h-73.306c-5.714,0-9.156-4.782-9.156-10.542v-10.356h19.691
			c29.515,0,56.064-13.775,74.349-35.116V407.377z M491.102,302.974c0,40.332-34.023,73.236-74.349,73.236H92.824
			c-40.327,0-71.926-32.904-71.926-73.236v-62.75c0-16.173,11.547-29.556,27.664-31.138c3.271-0.321,5.896-2.163,7.605-4.969
			c1.709-2.811,1.843-6.255,0.624-9.311l-9.289-23.026l37.483,9.383c5.117,1.27,10.41-1.475,12.286-6.434
			c17.726-46.781,86.165-80.735,162.751-80.735c76.587,0,145.032,33.954,162.756,80.735c1.878,4.954,7.171,7.694,12.304,6.434
			l37.519-9.383l-10.057,25.138c-1.056,2.653-0.99,5.623,0.199,8.219c1.184,2.597,3.983,4.592,6.677,5.531
			c12.607,4.388,21.682,16.265,21.682,29.556V302.974z"/>
	</g>
</g>
<g>
</g>
<g>
</g>
<g>
</g>
<g>
</g>
<g>
</g>
<g>
</g>
<g>
</g>
<g>
</g>
<g>
</g>
<g>
</g>
<g>
</g>
<g>
</g>
<g>
</g>
<g>
</g>
<g>
</g>
</svg>
