<?xml version="1.0" encoding="iso-8859-1"?>
<!-- Generator: Adobe Illustrator 19.0.0, SVG Export Plug-In . SVG Version: 6.00 Build 0)  -->
<svg width="100%" height="100%" stroke="currentColor" fill="currentColor" version="1.1" id="Capa_1" xmlns="http://www.w3.org/2000/svg" xmlns:xlink="http://www.w3.org/1999/xlink" x="0px" y="0px"
	 viewBox="0 0 490 490" style="enable-background:new 0 0 490 490;" xml:space="preserve">
<g>
	<path d="M431.1,223.9c1.6-24-6.8-48.6-25.2-66.9c-20.9-20.9-50-28.9-77-23.9c-24.1-29.5-61-48.1-102.2-48.1
		c-73.1,0-132.2,59.1-132.2,132.2C42,216.8,0,259.2,0,310.9C0,363,42,405,94.1,405c41.2,0,254.7,0,301.8,0c52.1,0,94.1-42,94.1-94.1
		C490,271.3,465.6,237.6,431.1,223.9z"/>
</g>
<g>
</g>
<g>
</g>
<g>
</g>
<g>
</g>
<g>
</g>
<g>
</g>
<g>
</g>
<g>
</g>
<g>
</g>
<g>
</g>
<g>
</g>
<g>
</g>
<g>
</g>
<g>
</g>
<g>
</g>
</svg>
