<svg width="100%" height="100%" fill="currentColor" viewBox="0 0 24 24" id="_24x24_On_Light_Music" data-name="24x24/On Light/Music" xmlns="http://www.w3.org/2000/svg">
  <rect id="view-box" width="24" height="24" fill="none"/>
  <path id="Shape" d="M0,5.25A3.25,3.25,0,1,1,3.25,8.5,3.254,3.254,0,0,1,0,5.25Zm1.5,0A1.75,1.75,0,1,0,3.25,3.5,1.752,1.752,0,0,0,1.5,5.25Zm10.5-2A3.25,3.25,0,1,1,15.25,6.5,3.254,3.254,0,0,1,12,3.25Zm1.5,0A1.75,1.75,0,1,0,15.25,1.5,1.752,1.752,0,0,0,13.5,3.25Z" transform="translate(2.25 13.25)" fill="currentColor"/>
  <path id="Shape-2" data-name="Shape" d="M1.5,15.085V4.3A1.25,1.25,0,0,1,2.56,3.065L11.724,1.5A.25.25,0,0,1,12,1.75V13.085a.75.75,0,0,0,1.5,0V1.75A1.75,1.75,0,0,0,11.484.021L2.32,1.584A2.747,2.747,0,0,0,0,4.3V15.085a.75.75,0,0,0,1.5,0Z" transform="translate(7.25 3.415)" fill="currentColor"/>
</svg>
