<?xml version="1.0" standalone="no"?>
<!DOCTYPE svg PUBLIC "-//W3C//DTD SVG 20010904//EN"
 "http://www.w3.org/TR/2001/REC-SVG-20010904/DTD/svg10.dtd">
<svg version="1.0" xmlns="http://www.w3.org/2000/svg"
 width="100%" height="100%" height="259.000000pt" viewBox="0 0 260.000000 259.000000"
 preserveAspectRatio="xMidYMid meet">

<g transform="translate(0.000000,259.000000) scale(0.100000,-0.100000)"
fill="currentColor" stroke="currentColor" stroke-width="10" >
<path d="M646 2330 c-40 -13 -74 -47 -86 -89 -5 -20 -10 -92 -10 -160 0 -146
16 -195 75 -227 19 -10 35 -21 35 -24 -1 -3 -20 -14 -43 -26 -47 -23 -83 -70
-93 -120 -8 -45 234 -1055 272 -1131 15 -30 41 -62 63 -77 36 -25 132 -50 168
-44 15 2 19 -6 24 -47 3 -27 9 -57 13 -66 15 -34 53 -39 302 -39 l246 0 29 29
c23 24 29 38 29 75 0 50 4 53 84 55 61 2 115 29 154 76 71 87 68 197 -10 281
-65 71 -86 74 -483 74 -328 0 -343 1 -360 20 -17 19 -17 34 -5 303 10 227 10
288 0 308 -7 13 -50 83 -96 155 -87 136 -128 174 -188 174 -14 0 -26 5 -26 10
0 6 6 10 14 10 8 0 28 16 45 35 l31 36 0 160 c0 186 -7 210 -73 240 -46 20
-67 22 -111 9z m88 -96 c13 -12 16 -41 16 -149 0 -127 -1 -135 -22 -149 -29
-20 -47 -20 -70 1 -16 14 -18 33 -18 153 0 92 4 140 12 148 17 17 64 15 82 -4z
m67 -510 c9 -8 51 -68 94 -135 l78 -121 -9 -216 c-14 -331 -13 -366 12 -398
11 -15 33 -37 48 -48 26 -20 43 -21 394 -26 399 -5 397 -5 432 -63 25 -41 25
-93 0 -134 -39 -64 -35 -64 -499 -61 l-419 3 -27 25 c-26 24 -55 70 -55 87 0
4 12 -6 26 -24 25 -33 82 -56 112 -46 65 20 92 56 92 121 0 101 -123 147 -194
73 -16 -16 -31 -44 -35 -61 -5 -25 -33 76 -124 451 -64 266 -117 496 -117 510
0 41 31 71 81 80 52 8 88 3 110 -17z m195 -1029 c7 -18 -13 -45 -33 -45 -17 0
-27 24 -19 45 7 20 45 19 52 0z m562 -264 c18 -1 22 -7 22 -31 l0 -30 -220 0
-220 0 0 33 0 32 198 -1 c108 -1 207 -2 220 -3z"/>
</g>
</svg>
