<?xml version="1.0" encoding="iso-8859-1"?>
<!-- Generator: Adobe Illustrator 19.0.0, SVG Export Plug-In . SVG Version: 6.00 Build 0)  -->
<svg width="100%" height="100%" fill="currentColor" stroke="currentColor" version="1.1" id="Layer_1" xmlns="http://www.w3.org/2000/svg" xmlns:xlink="http://www.w3.org/1999/xlink" x="0px" y="0px"
	 viewBox="0 0 512.001 512.001" style="enable-background:new 0 0 512.001 512.001;" xml:space="preserve">
<g>
	<g>
		<path d="M496.28,64.754l-79.083-21.568C311.416,14.039,200.055,14.039,94.723,43.208L15.721,64.754
			C5.891,67.435-0.671,76.692,0.055,86.855l21.333,298.667c0.973,13.627,14.326,22.84,27.411,18.913l71.296-21.397
			c27.453-8.237,55.469-13.916,83.698-17.051c3.784,8.343,6.454,16.656,7.941,24.987c4.751,26.572,2.329,51.898-6.613,68.011
			c-5.717,10.302-2,23.288,8.303,29.005c10.302,5.717,23.288,2,29.005-8.303c14.297-25.765,17.645-60.769,11.307-96.218
			c-1.227-6.871-2.977-13.634-5.219-20.31c44.067-0.697,88.204,4.776,131.113,16.398c1.164,3.805,2.091,7.609,2.771,11.418
			c4.751,26.572,2.329,51.898-6.613,68.011c-5.717,10.302-2,23.288,8.303,29.005c10.302,5.717,23.288,2,29.005-8.303
			c12.981-23.393,16.934-54.401,12.809-86.445l37.296,11.193c13.085,3.927,26.438-5.286,27.411-18.913l21.333-298.667
			C512.672,76.692,506.11,67.435,496.28,64.754z M449.953,355.912l-38.502-11.555c-6.684-13.763-15.475-27.216-26.221-40.528
			c-11.744-14.549-18.47-29.125-21.171-47.827h41.276l-64-106.667l-64,106.667h43.741c3.053,28.468,12.649,51.473,29.866,73.25
			c-40.786-7.641-82.266-10.323-123.539-8.031c-3.913-5.832-8.184-11.627-12.839-17.393c-11.744-14.549-18.47-29.125-21.171-47.827
			h41.275l-64-106.667l-64,106.667h43.741c2.918,27.215,11.817,49.438,27.636,70.368c-23.652,3.618-47.115,8.872-70.212,15.801
			l-45.784,13.741L43.862,101.304l62.168-16.955c97.97-27.13,201.478-27.13,299.888-0.015l62.221,16.97L449.953,355.912z"/>
	</g>
</g>
<g>
</g>
<g>
</g>
<g>
</g>
<g>
</g>
<g>
</g>
<g>
</g>
<g>
</g>
<g>
</g>
<g>
</g>
<g>
</g>
<g>
</g>
<g>
</g>
<g>
</g>
<g>
</g>
<g>
</g>
</svg>
