<?xml version="1.0" encoding="iso-8859-1"?>
<!-- Generator: Adobe Illustrator 19.0.0, SVG Export Plug-In . SVG Version: 6.00 Build 0)  -->
<svg width="100%" height="100%" stroke="currentColor" fill="currentColor" version="1.1" id="Layer_1" xmlns="http://www.w3.org/2000/svg" xmlns:xlink="http://www.w3.org/1999/xlink" x="0px" y="0px"
	 viewBox="0 0 512.001 512.001" style="enable-background:new 0 0 512.001 512.001;" xml:space="preserve">
<g>
	<g>
		<path d="M509.09,360.265l-72.693-72.693c-1.867-1.864-4.395-2.912-7.032-2.912h-68.515L277.79,201.6
			c-3.883-3.882-10.179-3.882-14.064,0c-3.883,3.883-3.883,10.179,0,14.064l85.973,85.973c1.867,1.864,4.395,2.912,7.032,2.912
			h68.515l66.868,66.868v42.773c0,2.206-1.468,3.142-2.341,3.504c-0.875,0.365-2.576,0.737-4.134-0.821l-35.835-35.836
			c-9.363-9.362-21.802-14.406-35.054-14.236c-13.238,0.182-25.547,5.583-34.663,15.212c-17.921,18.936-17.239,49.604,1.519,68.361
			l35.266,35.266c1.561,1.559,1.184,3.259,0.823,4.133c-0.363,0.876-1.301,2.343-3.506,2.343h-42.773l-66.868-66.868v-68.515
			c0-2.638-1.047-5.167-2.912-7.032l-27.085-27.085c-3.884-3.882-10.179-3.882-14.064,0c-3.883,3.883-3.883,10.179,0,14.064
			l24.172,24.171v68.515c0,2.638,1.047,5.167,2.912,7.032l72.693,72.693c1.867,1.864,4.395,2.912,7.032,2.912h46.891
			c9.613,0,18.199-5.738,21.88-14.619c3.679-8.879,1.664-19.01-5.133-25.808l-35.267-35.266
			c-11.214-11.214-11.723-29.439-1.138-40.625c5.391-5.695,12.669-8.89,20.491-8.997c7.792-0.066,15.183,2.882,20.717,8.414
			l35.835,35.836c6.798,6.795,16.926,8.81,25.808,5.133c8.881-3.678,14.618-12.267,14.618-21.878v-46.891
			C512.001,364.659,510.954,362.131,509.09,360.265z"/>
	</g>
</g>
<g>
	<g>
		<path d="M210.365,162.303l25.235,25.236c3.884,3.882,10.179,3.882,14.064,0c3.883-3.883,3.883-10.179,0-14.064l-22.324-22.323
			V82.638c0-2.639-1.047-5.167-2.912-7.033L151.737,2.912c-1.867-1.864-4.395-2.912-7.033-2.912H97.812
			c-9.613,0-18.2,5.737-21.878,14.618c-3.678,8.879-1.664,19.01,5.134,25.81l35.265,35.266
			c11.216,11.214,11.725,29.439,1.136,40.624c-5.391,5.696-12.667,8.89-20.489,8.997c-7.841,0.172-15.185-2.881-20.718-8.413
			L40.426,81.066c-6.798-6.795-16.926-8.808-25.808-5.133C5.737,79.612,0,88.201,0,97.812v46.891c0,2.637,1.047,5.166,2.912,7.031
			l72.693,72.694c1.867,1.864,4.395,2.912,7.033,2.912h68.515l81.21,81.212c1.942,1.941,4.488,2.912,7.032,2.912
			s5.09-0.971,7.032-2.912c3.884-3.883,3.884-10.179,0-14.064l-84.123-84.123c-1.867-1.864-4.395-2.912-7.032-2.912H86.756
			l-66.868-66.868V97.812c0-2.206,1.468-3.141,2.341-3.504s2.576-0.737,4.134,0.821l35.835,35.839
			c9.2,9.199,21.379,14.241,34.364,14.241c0.228,0,0.46-0.003,0.689-0.005c13.239-0.183,25.547-5.585,34.66-15.212
			c17.925-18.935,17.243-49.601-1.517-68.361L95.129,26.366c-1.561-1.561-1.184-3.26-0.822-4.135
			c0.363-0.875,1.299-2.341,3.504-2.341h42.773l66.868,66.868v68.514C207.453,157.909,208.5,160.438,210.365,162.303z"/>
	</g>
</g>
<g>
</g>
<g>
</g>
<g>
</g>
<g>
</g>
<g>
</g>
<g>
</g>
<g>
</g>
<g>
</g>
<g>
</g>
<g>
</g>
<g>
</g>
<g>
</g>
<g>
</g>
<g>
</g>
<g>
</g>
</svg>
